<?xml version="1.0" encoding="UTF-8" standalone="no"?>
<!DOCTYPE svg PUBLIC "-//W3C//DTD SVG 1.1//EN"
 "http://www.w3.org/Graphics/SVG/1.1/DTD/svg11.dtd">
<!-- Generated by graphviz version 6.0.1 (0)
 -->
<!-- Title: G Pages: 1 -->
<svg width="591pt" height="78pt"
 viewBox="0.00 0.00 591.49 78.00" xmlns="http://www.w3.org/2000/svg" xmlns:xlink="http://www.w3.org/1999/xlink">
<g id="graph0" class="graph" transform="scale(1 1) rotate(0) translate(4 74)">
<title>G</title>
<polygon fill="white" stroke="none" points="-4,4 -4,-74 587.49,-74 587.49,4 -4,4"/>
<!-- init -->
<g id="node1" class="node">
<title>init</title>
<ellipse fill="none" stroke="black" cx="27" cy="-18" rx="27" ry="18"/>
<text text-anchor="middle" x="27" y="-14.3" font-family="Times,serif" font-size="14.00">init</text>
</g>
<!-- predict -->
<g id="node2" class="node">
<title>predict</title>
<ellipse fill="none" stroke="black" cx="126.1" cy="-18" rx="35.19" ry="18"/>
<text text-anchor="middle" x="126.1" y="-14.3" font-family="Times,serif" font-size="14.00">predict</text>
</g>
<!-- init&#45;&gt;predict -->
<g id="edge1" class="edge">
<title>init&#45;&gt;predict</title>
<path fill="none" stroke="black" d="M54.02,-18C62.26,-18 71.62,-18 80.78,-18"/>
<polygon fill="black" stroke="black" points="80.96,-21.5 90.96,-18 80.96,-14.5 80.96,-21.5"/>
</g>
<!-- loss -->
<g id="node3" class="node">
<title>loss</title>
<ellipse fill="none" stroke="black" cx="225.19" cy="-52" rx="27" ry="18"/>
<text text-anchor="middle" x="225.19" y="-48.3" font-family="Times,serif" font-size="14.00">loss</text>
</g>
<!-- predict&#45;&gt;loss -->
<g id="edge2" class="edge">
<title>predict&#45;&gt;loss</title>
<path fill="none" stroke="black" d="M155.44,-27.93C166.61,-31.84 179.52,-36.36 191.11,-40.42"/>
<polygon fill="black" stroke="black" points="190.29,-43.84 200.88,-43.84 192.6,-37.23 190.29,-43.84"/>
</g>
<!-- gradient -->
<g id="node4" class="node">
<title>gradient</title>
<ellipse fill="none" stroke="black" cx="361.84" cy="-52" rx="39.79" ry="18"/>
<text text-anchor="middle" x="361.84" y="-48.3" font-family="Times,serif" font-size="14.00">gradient</text>
</g>
<!-- loss&#45;&gt;gradient -->
<g id="edge3" class="edge">
<title>loss&#45;&gt;gradient</title>
<path fill="none" stroke="black" d="M252.47,-52C269.35,-52 291.8,-52 311.88,-52"/>
<polygon fill="black" stroke="black" points="312.13,-55.5 322.13,-52 312.13,-48.5 312.13,-55.5"/>
</g>
<!-- step -->
<g id="node5" class="node">
<title>step</title>
<ellipse fill="none" stroke="black" cx="465.49" cy="-18" rx="27" ry="18"/>
<text text-anchor="middle" x="465.49" y="-14.3" font-family="Times,serif" font-size="14.00">step</text>
</g>
<!-- gradient&#45;&gt;step -->
<g id="edge4" class="edge">
<title>gradient&#45;&gt;step</title>
<path fill="none" stroke="black" d="M394.17,-41.52C405.92,-37.59 419.32,-33.11 431.25,-29.12"/>
<polygon fill="black" stroke="black" points="432.48,-32.4 440.85,-25.91 430.26,-25.76 432.48,-32.4"/>
</g>
<!-- step&#45;&gt;predict -->
<g id="edge6" class="edge">
<title>step&#45;&gt;predict</title>
<path fill="none" stroke="black" d="M438.29,-18C380.72,-18 242.6,-18 171.32,-18"/>
<polygon fill="black" stroke="black" points="171.3,-14.5 161.3,-18 171.3,-21.5 171.3,-14.5"/>
<text text-anchor="middle" x="287.19" y="-21.8" font-family="Times,serif" font-size="14.00">repeat</text>
</g>
<!-- stop -->
<g id="node6" class="node">
<title>stop</title>
<ellipse fill="none" stroke="black" cx="556.49" cy="-18" rx="27" ry="18"/>
<text text-anchor="middle" x="556.49" y="-14.3" font-family="Times,serif" font-size="14.00">stop</text>
</g>
<!-- step&#45;&gt;stop -->
<g id="edge5" class="edge">
<title>step&#45;&gt;stop</title>
<path fill="none" stroke="black" d="M492.71,-18C501.04,-18 510.4,-18 519.3,-18"/>
<polygon fill="black" stroke="black" points="519.45,-21.5 529.45,-18 519.45,-14.5 519.45,-21.5"/>
</g>
</g>
</svg>
