<?xml version="1.0" encoding="UTF-8" standalone="no"?>
<!DOCTYPE svg PUBLIC "-//W3C//DTD SVG 1.1//EN"
 "http://www.w3.org/Graphics/SVG/1.1/DTD/svg11.dtd">
<!-- Generated by graphviz version 2.43.0 (0)
 -->
<!-- Title: G Pages: 1 -->
<svg width="296pt" height="98pt"
 viewBox="0.00 0.00 296.29 98.00" xmlns="http://www.w3.org/2000/svg" xmlns:xlink="http://www.w3.org/1999/xlink">
<g id="graph0" class="graph" transform="scale(1 1) rotate(0) translate(4 94)">
<title>G</title>
<polygon fill="white" stroke="transparent" points="-4,4 -4,-94 292.29,-94 292.29,4 -4,4"/>
<!-- model -->
<g id="node1" class="node">
<title>model</title>
<polygon fill="none" stroke="black" points="184.69,-70 116.69,-70 112.69,-66 112.69,-20 180.69,-20 184.69,-24 184.69,-70"/>
<polyline fill="none" stroke="black" points="180.69,-66 112.69,-66 "/>
<polyline fill="none" stroke="black" points="180.69,-66 180.69,-20 "/>
<polyline fill="none" stroke="black" points="180.69,-66 184.69,-70 "/>
<text text-anchor="middle" x="148.69" y="-41.3" font-family="Times,serif" font-size="14.00">model</text>
</g>
<!-- results -->
<g id="node3" class="node">
<title>results</title>
<ellipse fill="none" stroke="black" cx="254.49" cy="-45" rx="33.6" ry="18"/>
<text text-anchor="middle" x="254.49" y="-41.3" font-family="Times,serif" font-size="14.00">results</text>
</g>
<!-- model&#45;&gt;results -->
<g id="edge2" class="edge">
<title>model&#45;&gt;results</title>
<path fill="none" stroke="black" d="M184.83,-45C193.03,-45 201.85,-45 210.35,-45"/>
<polygon fill="black" stroke="black" points="210.49,-48.5 220.49,-45 210.49,-41.5 210.49,-48.5"/>
</g>
<!-- inputs -->
<g id="node2" class="node">
<title>inputs</title>
<ellipse fill="none" stroke="black" cx="38.35" cy="-72" rx="32.49" ry="18"/>
<text text-anchor="middle" x="38.35" y="-68.3" font-family="Times,serif" font-size="14.00">inputs</text>
</g>
<!-- inputs&#45;&gt;model -->
<g id="edge1" class="edge">
<title>inputs&#45;&gt;model</title>
<path fill="none" stroke="black" d="M68.38,-64.76C78.85,-62.15 90.94,-59.14 102.46,-56.27"/>
<polygon fill="black" stroke="black" points="103.54,-59.61 112.39,-53.8 101.84,-52.82 103.54,-59.61"/>
</g>
<!-- weights -->
<g id="node4" class="node">
<title>weights</title>
<ellipse fill="none" stroke="black" cx="38.35" cy="-18" rx="38.19" ry="18"/>
<text text-anchor="middle" x="38.35" y="-14.3" font-family="Times,serif" font-size="14.00">weights</text>
</g>
<!-- weights&#45;&gt;model -->
<g id="edge3" class="edge">
<title>weights&#45;&gt;model</title>
<path fill="none" stroke="black" d="M72.44,-26.25C81.96,-28.62 92.51,-31.25 102.63,-33.77"/>
<polygon fill="black" stroke="black" points="101.99,-37.22 112.54,-36.24 103.69,-30.43 101.99,-37.22"/>
</g>
</g>
</svg>
