<?xml version="1.0" encoding="UTF-8" standalone="no"?>
<!DOCTYPE svg PUBLIC "-//W3C//DTD SVG 1.1//EN"
 "http://www.w3.org/Graphics/SVG/1.1/DTD/svg11.dtd">
<!-- Generated by graphviz version 2.43.0 (0)
 -->
<!-- Title: G Pages: 1 -->
<svg width="483pt" height="98pt"
 viewBox="0.00 0.00 483.08 98.00" xmlns="http://www.w3.org/2000/svg" xmlns:xlink="http://www.w3.org/1999/xlink">
<g id="graph0" class="graph" transform="scale(1 1) rotate(0) translate(4 94)">
<title>G</title>
<polygon fill="white" stroke="transparent" points="-4,4 -4,-94 479.08,-94 479.08,4 -4,4"/>
<!-- model -->
<g id="node1" class="node">
<title>model</title>
<polygon fill="none" stroke="black" points="185.69,-77 117.69,-77 113.69,-73 113.69,-27 181.69,-27 185.69,-31 185.69,-77"/>
<polyline fill="none" stroke="black" points="181.69,-73 113.69,-73 "/>
<polyline fill="none" stroke="black" points="181.69,-73 181.69,-27 "/>
<polyline fill="none" stroke="black" points="181.69,-73 185.69,-77 "/>
<text text-anchor="middle" x="149.69" y="-48.3" font-family="Times,serif" font-size="14.00">model</text>
</g>
<!-- results -->
<g id="node3" class="node">
<title>results</title>
<ellipse fill="none" stroke="black" cx="292.49" cy="-52" rx="33.6" ry="18"/>
<text text-anchor="middle" x="292.49" y="-48.3" font-family="Times,serif" font-size="14.00">results</text>
</g>
<!-- model&#45;&gt;results -->
<g id="edge2" class="edge">
<title>model&#45;&gt;results</title>
<path fill="none" stroke="black" d="M185.86,-52C204.73,-52 228.14,-52 248.13,-52"/>
<polygon fill="black" stroke="black" points="248.22,-55.5 258.22,-52 248.22,-48.5 248.22,-55.5"/>
</g>
<!-- inputs -->
<g id="node2" class="node">
<title>inputs</title>
<ellipse fill="none" stroke="black" cx="38.35" cy="-72" rx="32.49" ry="18"/>
<text text-anchor="middle" x="38.35" y="-68.3" font-family="Times,serif" font-size="14.00">inputs</text>
</g>
<!-- inputs&#45;&gt;model -->
<g id="edge1" class="edge">
<title>inputs&#45;&gt;model</title>
<path fill="none" stroke="black" d="M69.52,-66.48C80.08,-64.55 92.18,-62.34 103.68,-60.23"/>
<polygon fill="black" stroke="black" points="104.39,-63.66 113.59,-58.42 103.13,-56.78 104.39,-63.66"/>
</g>
<!-- performance -->
<g id="node5" class="node">
<title>performance</title>
<ellipse fill="none" stroke="black" cx="419.18" cy="-52" rx="55.79" ry="18"/>
<text text-anchor="middle" x="419.18" y="-48.3" font-family="Times,serif" font-size="14.00">performance</text>
</g>
<!-- results&#45;&gt;performance -->
<g id="edge4" class="edge">
<title>results&#45;&gt;performance</title>
<path fill="none" stroke="black" d="M326.58,-52C334.84,-52 344,-52 353.23,-52"/>
<polygon fill="black" stroke="black" points="353.23,-55.5 363.23,-52 353.23,-48.5 353.23,-55.5"/>
</g>
<!-- weights -->
<g id="node4" class="node">
<title>weights</title>
<ellipse fill="none" stroke="black" cx="38.35" cy="-18" rx="38.19" ry="18"/>
<text text-anchor="middle" x="38.35" y="-14.3" font-family="Times,serif" font-size="14.00">weights</text>
</g>
<!-- weights&#45;&gt;model -->
<g id="edge3" class="edge">
<title>weights&#45;&gt;model</title>
<path fill="none" stroke="black" d="M70.68,-27.74C81.03,-30.96 92.75,-34.61 103.9,-38.07"/>
<polygon fill="black" stroke="black" points="102.92,-41.43 113.51,-41.06 105,-34.75 102.92,-41.43"/>
</g>
<!-- performance&#45;&gt;weights -->
<g id="edge5" class="edge">
<title>performance&#45;&gt;weights</title>
<path fill="none" stroke="black" d="M380.65,-38.79C364.18,-33.57 344.49,-28.08 326.29,-25 242.8,-10.86 143.72,-12.41 86.54,-15.05"/>
<polygon fill="black" stroke="black" points="86.17,-11.56 76.36,-15.55 86.52,-18.55 86.17,-11.56"/>
<text text-anchor="middle" x="222.19" y="-19.8" font-family="Times,serif" font-size="14.00">update</text>
</g>
</g>
</svg>
