<?xml version="1.0" encoding="UTF-8" standalone="no"?>
<!DOCTYPE svg PUBLIC "-//W3C//DTD SVG 1.1//EN"
 "http://www.w3.org/Graphics/SVG/1.1/DTD/svg11.dtd">
<!-- Generated by graphviz version 2.43.0 (0)
 -->
<!-- Title: G Pages: 1 -->
<svg width="489pt" height="134pt"
 viewBox="0.00 0.00 489.18 134.36" xmlns="http://www.w3.org/2000/svg" xmlns:xlink="http://www.w3.org/1999/xlink">
<g id="graph0" class="graph" transform="scale(1 1) rotate(0) translate(4 130.36)">
<title>G</title>
<polygon fill="white" stroke="transparent" points="-4,4 -4,-130.36 485.18,-130.36 485.18,4 -4,4"/>
<!-- model -->
<g id="node1" class="node">
<title>model</title>
<polygon fill="none" stroke="black" points="217.09,-79.36 141.09,-79.36 137.09,-75.36 137.09,-29.36 213.09,-29.36 217.09,-33.36 217.09,-79.36"/>
<polyline fill="none" stroke="black" points="213.09,-75.36 137.09,-75.36 "/>
<polyline fill="none" stroke="black" points="213.09,-75.36 213.09,-29.36 "/>
<polyline fill="none" stroke="black" points="213.09,-75.36 217.09,-79.36 "/>
<text text-anchor="middle" x="177.09" y="-50.66" font-family="Times,serif" font-size="14.00">architecture</text>
</g>
<!-- predictions -->
<g id="node3" class="node">
<title>predictions</title>
<ellipse fill="none" stroke="black" cx="340.14" cy="-54.36" rx="50.09" ry="18"/>
<text text-anchor="middle" x="340.14" y="-50.66" font-family="Times,serif" font-size="14.00">predictions</text>
</g>
<!-- model&#45;&gt;predictions -->
<g id="edge2" class="edge">
<title>model&#45;&gt;predictions</title>
<path fill="none" stroke="black" d="M217.49,-54.36C236.29,-54.36 259.19,-54.36 280.02,-54.36"/>
<polygon fill="black" stroke="black" points="280.06,-57.86 290.06,-54.36 280.06,-50.86 280.06,-57.86"/>
</g>
<!-- inputs -->
<g id="node2" class="node">
<title>inputs</title>
<ellipse fill="none" stroke="black" cx="50.05" cy="-74.36" rx="32.49" ry="18"/>
<text text-anchor="middle" x="50.05" y="-70.66" font-family="Times,serif" font-size="14.00">inputs</text>
</g>
<!-- inputs&#45;&gt;model -->
<g id="edge1" class="edge">
<title>inputs&#45;&gt;model</title>
<path fill="none" stroke="black" d="M81.64,-69.47C95.15,-67.31 111.38,-64.71 126.54,-62.28"/>
<polygon fill="black" stroke="black" points="127.51,-65.67 136.83,-60.64 126.4,-58.76 127.51,-65.67"/>
</g>
<!-- loss -->
<g id="node6" class="node">
<title>loss</title>
<ellipse fill="none" stroke="black" cx="454.18" cy="-83.36" rx="27" ry="18"/>
<text text-anchor="middle" x="454.18" y="-79.66" font-family="Times,serif" font-size="14.00">loss</text>
</g>
<!-- predictions&#45;&gt;loss -->
<g id="edge5" class="edge">
<title>predictions&#45;&gt;loss</title>
<path fill="none" stroke="black" d="M381.27,-64.75C393.51,-67.91 406.85,-71.37 418.68,-74.43"/>
<polygon fill="black" stroke="black" points="418.07,-77.89 428.63,-77 419.82,-71.11 418.07,-77.89"/>
</g>
<!-- parameters -->
<g id="node4" class="node">
<title>parameters</title>
<ellipse fill="none" stroke="black" cx="50.05" cy="-20.36" rx="50.09" ry="18"/>
<text text-anchor="middle" x="50.05" y="-16.66" font-family="Times,serif" font-size="14.00">parameters</text>
</g>
<!-- parameters&#45;&gt;model -->
<g id="edge3" class="edge">
<title>parameters&#45;&gt;model</title>
<path fill="none" stroke="black" d="M90.61,-31.12C102.13,-34.25 114.85,-37.71 126.88,-40.98"/>
<polygon fill="black" stroke="black" points="126.22,-44.42 136.78,-43.67 128.05,-37.67 126.22,-44.42"/>
</g>
<!-- labels -->
<g id="node5" class="node">
<title>labels</title>
<ellipse fill="none" stroke="black" cx="340.14" cy="-108.36" rx="31.4" ry="18"/>
<text text-anchor="middle" x="340.14" y="-104.66" font-family="Times,serif" font-size="14.00">labels</text>
</g>
<!-- labels&#45;&gt;loss -->
<g id="edge4" class="edge">
<title>labels&#45;&gt;loss</title>
<path fill="none" stroke="black" d="M369.41,-102.05C384.3,-98.73 402.69,-94.63 418.44,-91.11"/>
<polygon fill="black" stroke="black" points="419.35,-94.49 428.35,-88.9 417.83,-87.66 419.35,-94.49"/>
</g>
<!-- loss&#45;&gt;parameters -->
<g id="edge6" class="edge">
<title>loss&#45;&gt;parameters</title>
<path fill="none" stroke="black" d="M440.88,-67.53C429.39,-54.1 410.95,-35.74 390.18,-27.36 295.38,10.89 173.21,0.49 104.38,-10.18"/>
<polygon fill="black" stroke="black" points="103.53,-6.77 94.21,-11.81 104.64,-13.68 103.53,-6.77"/>
<text text-anchor="middle" x="253.59" y="-6.16" font-family="Times,serif" font-size="14.00">update</text>
</g>
</g>
</svg>
