<?xml version="1.0" encoding="UTF-8" standalone="no"?>
<!DOCTYPE svg PUBLIC "-//W3C//DTD SVG 1.1//EN"
 "http://www.w3.org/Graphics/SVG/1.1/DTD/svg11.dtd">
<!-- Generated by graphviz version 2.43.0 (0)
 -->
<!-- Title: G Pages: 1 -->
<svg width="285pt" height="58pt"
 viewBox="0.00 0.00 284.59 58.00" xmlns="http://www.w3.org/2000/svg" xmlns:xlink="http://www.w3.org/1999/xlink">
<g id="graph0" class="graph" transform="scale(1 1) rotate(0) translate(4 54)">
<title>G</title>
<polygon fill="white" stroke="transparent" points="-4,4 -4,-54 280.59,-54 280.59,4 -4,4"/>
<!-- program -->
<g id="node1" class="node">
<title>program</title>
<polygon fill="none" stroke="black" points="172.99,-50 104.99,-50 100.99,-46 100.99,0 168.99,0 172.99,-4 172.99,-50"/>
<polyline fill="none" stroke="black" points="168.99,-46 100.99,-46 "/>
<polyline fill="none" stroke="black" points="168.99,-46 168.99,0 "/>
<polyline fill="none" stroke="black" points="168.99,-46 172.99,-50 "/>
<text text-anchor="middle" x="136.99" y="-21.3" font-family="Times,serif" font-size="14.00">program</text>
</g>
<!-- results -->
<g id="node3" class="node">
<title>results</title>
<ellipse fill="none" stroke="black" cx="242.79" cy="-25" rx="33.6" ry="18"/>
<text text-anchor="middle" x="242.79" y="-21.3" font-family="Times,serif" font-size="14.00">results</text>
</g>
<!-- program&#45;&gt;results -->
<g id="edge2" class="edge">
<title>program&#45;&gt;results</title>
<path fill="none" stroke="black" d="M173.14,-25C181.33,-25 190.15,-25 198.65,-25"/>
<polygon fill="black" stroke="black" points="198.79,-28.5 208.79,-25 198.79,-21.5 198.79,-28.5"/>
</g>
<!-- inputs -->
<g id="node2" class="node">
<title>inputs</title>
<ellipse fill="none" stroke="black" cx="32.5" cy="-25" rx="32.49" ry="18"/>
<text text-anchor="middle" x="32.5" y="-21.3" font-family="Times,serif" font-size="14.00">inputs</text>
</g>
<!-- inputs&#45;&gt;program -->
<g id="edge1" class="edge">
<title>inputs&#45;&gt;program</title>
<path fill="none" stroke="black" d="M65.09,-25C73.11,-25 81.9,-25 90.47,-25"/>
<polygon fill="black" stroke="black" points="90.76,-28.5 100.76,-25 90.76,-21.5 90.76,-28.5"/>
</g>
</g>
</svg>
